<mxfile host="65bd71144e">
    <diagram id="fjN8D4Odn0497USpxgly" name="Page-1">
        <mxGraphModel dx="689" dy="1678" grid="1" gridSize="10" guides="1" tooltips="1" connect="1" arrows="1" fold="1" page="1" pageScale="1" pageWidth="1169" pageHeight="827" background="#ffffff" math="0" shadow="0">
            <root>
                <mxCell id="0"/>
                <mxCell id="1" parent="0"/>
                <mxCell id="169" value="Storage Facility" style="rounded=0;whiteSpace=wrap;html=1;fillColor=#fff2cc;strokeColor=#d6b656;" parent="1" vertex="1">
                    <mxGeometry x="120" y="-760" width="140" height="40" as="geometry"/>
                </mxCell>
                <mxCell id="294" value="&lt;b&gt;Storage Facility Instance&lt;/b&gt;" style="rounded=0;whiteSpace=wrap;html=1;align=center;fillColor=#dae8fc;strokeColor=#6c8ebf;" parent="1" vertex="1">
                    <mxGeometry x="40" y="-800" width="220" height="40" as="geometry"/>
                </mxCell>
                <mxCell id="297" value="itf" style="rounded=0;whiteSpace=wrap;html=1;align=center;fillColor=#dae8fc;strokeColor=#6c8ebf;" parent="1" vertex="1">
                    <mxGeometry x="40" y="-760" width="80" height="40" as="geometry"/>
                </mxCell>
                <mxCell id="332" value="void * (fs_mount etc.)" style="rounded=0;whiteSpace=wrap;html=1;fillColor=#fff2cc;strokeColor=#d6b656;" parent="1" vertex="1">
                    <mxGeometry x="120" y="-720" width="140" height="40" as="geometry"/>
                </mxCell>
                <mxCell id="298" value="data" style="rounded=0;whiteSpace=wrap;html=1;fillColor=#dae8fc;strokeColor=#6c8ebf;" parent="1" vertex="1">
                    <mxGeometry x="40" y="-720" width="80" height="40" as="geometry"/>
                </mxCell>
            </root>
        </mxGraphModel>
    </diagram>
</mxfile>